<svg xmlns="http://www.w3.org/2000/svg" xmlns:xlink="http://www.w3.org/1999/xlink" xmlns:lucid="lucid" width="1147.36" height="765.38"><g transform="translate(-312.22924340404296 -47.83292069944599)" lucid:page-tab-id="K.tQ3-zSrW3I"><path d="M0 0h1760v1360H0z" fill-opacity="0"/><path d="M878.4 216.67h240v60h-240z" fill="none"/><path d="M1112.2 109h327.4v121.47h-327.4z" fill="none"/><use xlink:href="#a" transform="matrix(1,0,0,1,1112.2102806926516,108.9881446563448) translate(13.567901234567898 25.44444444444445)"/><use xlink:href="#b" transform="matrix(1,0,0,1,1112.2102806926516,108.9881446563448) translate(119.67901234567901 25.44444444444445)"/><use xlink:href="#c" transform="matrix(1,0,0,1,1112.2102806926516,108.9881446563448) translate(149.30864197530863 25.44444444444445)"/><use xlink:href="#d" transform="matrix(1,0,0,1,1112.2102806926516,108.9881446563448) translate(186.34567901234567 25.44444444444445)"/><use xlink:href="#e" transform="matrix(1,0,0,1,1112.2102806926516,108.9881446563448) translate(6.80864197530866 52.11111111111112)"/><use xlink:href="#f" transform="matrix(1,0,0,1,1112.2102806926516,108.9881446563448) translate(38.8456790123457 52.11111111111112)"/><use xlink:href="#g" transform="matrix(1,0,0,1,1112.2102806926516,108.9881446563448) translate(199.15432098765433 52.11111111111112)"/><use xlink:href="#h" transform="matrix(1,0,0,1,1112.2102806926516,108.9881446563448) translate(31.40740740740742 78.77777777777779)"/><use xlink:href="#i" transform="matrix(1,0,0,1,1112.2102806926516,108.9881446563448) translate(75.79012345679013 78.77777777777779)"/><use xlink:href="#j" transform="matrix(1,0,0,1,1112.2102806926516,108.9881446563448) translate(125.11111111111111 78.77777777777779)"/><use xlink:href="#k" transform="matrix(1,0,0,1,1112.2102806926516,108.9881446563448) translate(200.35802469135803 78.77777777777779)"/><use xlink:href="#l" transform="matrix(1,0,0,1,1112.2102806926516,108.9881446563448) translate(243.5679012345679 78.77777777777779)"/><use xlink:href="#m" transform="matrix(1,0,0,1,1112.2102806926516,108.9881446563448) translate(32.611111111111086 105.44444444444446)"/><use xlink:href="#n" transform="matrix(1,0,0,1,1112.2102806926516,108.9881446563448) translate(117.67283950617282 105.44444444444446)"/><use xlink:href="#o" transform="matrix(1,0,0,1,1112.2102806926516,108.9881446563448) translate(136.19135802469134 105.44444444444446)"/><use xlink:href="#p" transform="matrix(1,0,0,1,1112.2102806926516,108.9881446563448) translate(210.26543209876542 105.44444444444446)"/><path d="M453.15 75.83a8 8 0 0 1 8-8h836.75a8 8 0 0 1 8 8V101a8 8 0 0 1-8 8H461.15a8 8 0 0 1-8-8z" stroke="#000" stroke-opacity="0" stroke-width="2" fill="#fff" fill-opacity="0"/><use xlink:href="#q" transform="matrix(1,0,0,1,457.1465527853429,71.83292069944599) translate(329.151975308642 25.782777777777778)"/><path d="M633.85 107.65h496.2M633.87 107.65h-1.02M1130 107.65h1.04" stroke="#a9afb8" stroke-width="2" fill="none"/><path d="M453.15 117a8 8 0 0 1 8-8h837.7a8 8 0 0 1 8 8v2.83a8 8 0 0 1-8 8h-837.7a8 8 0 0 1-8-8z" stroke="#000" stroke-opacity="0" stroke-width="2" fill="#fff" fill-opacity="0"/><use xlink:href="#r" transform="matrix(1,0,0,1,457.1465527853434,112.9881446563448) translate(295.2504835390947 14.917037037037037)"/><use xlink:href="#s" transform="matrix(1,0,0,1,457.1465527853434,112.9881446563448) translate(340.28957818930047 14.917037037037037)"/><use xlink:href="#t" transform="matrix(1,0,0,1,457.1465527853434,112.9881446563448) translate(389.4926646090536 14.917037037037037)"/><use xlink:href="#u" transform="matrix(1,0,0,1,457.1465527853434,112.9881446563448) translate(397.99060699588483 14.917037037037037)"/><use xlink:href="#v" transform="matrix(1,0,0,1,457.1465527853434,112.9881446563448) translate(434.5317592592593 14.917037037037037)"/><use xlink:href="#w" transform="matrix(1,0,0,1,457.1465527853434,112.9881446563448) translate(460.83289094650206 14.917037037037037)"/><use xlink:href="#x" transform="matrix(1,0,0,1,457.1465527853434,112.9881446563448) translate(473.2823765432099 14.917037037037037)"/><use xlink:href="#y" transform="matrix(1,0,0,1,457.1465527853434,112.9881446563448) translate(506.38186213991776 14.917037037037037)"/><use xlink:href="#z" transform="matrix(1,0,0,1,457.1465527853434,112.9881446563448) translate(523.3777469135803 14.917037037037037)"/><path d="M332.23 548.2a5 5 0 0 1 5-5H683a5 5 0 0 1 5 5v240a5 5 0 0 1-5 5H337.24a5 5 0 0 1-5-5z" fill="#fff"/><path d="M332.23 618.2v36H688v-36M332.23 688.2v36H688v-36M332.23 758.2v30a5 5 0 0 0 5 5H683a5 5 0 0 0 5-5v-30" fill="#e6e6e6"/><path d="M332.23 583.2v-35a5 5 0 0 1 5-5H683a5 5 0 0 1 5 5v35" fill="#54c45e"/><path d="M332.23 548.2a5 5 0 0 1 5-5H683a5 5 0 0 1 5 5v240a5 5 0 0 1-5 5H337.24a5 5 0 0 1-5-5zM332.23 583.2H688" stroke="#333" fill="none"/><use xlink:href="#A" transform="matrix(1,0,0,1,342.22924340404296,543.2150014426286) translate(11.2 25.15555555555556)"/><use xlink:href="#B" transform="matrix(1,0,0,1,337.22924340404296,585.7150014426286) translate(11.2 20.155555555555555)"/><use xlink:href="#C" transform="matrix(1,0,0,1,337.22924340404296,585.7150014426286) translate(34.85432098765432 20.155555555555555)"/><use xlink:href="#D" transform="matrix(1,0,0,1,337.22924340404296,620.7150014426286) translate(11.2 20.155555555555555)"/><use xlink:href="#E" transform="matrix(1,0,0,1,337.22924340404296,620.7150014426286) translate(79.2493827160494 20.155555555555555)"/><use xlink:href="#F" transform="matrix(1,0,0,1,337.22924340404296,620.7150014426286) translate(138.4098765432099 20.155555555555555)"/><use xlink:href="#G" transform="matrix(1,0,0,1,337.22924340404296,655.7150014426286) translate(11.2 20.155555555555555)"/><use xlink:href="#E" transform="matrix(1,0,0,1,337.22924340404296,655.7150014426286) translate(112.82962962962965 20.155555555555555)"/><use xlink:href="#H" transform="matrix(1,0,0,1,337.22924340404296,655.7150014426286) translate(171.99012345679014 20.155555555555555)"/><use xlink:href="#I" transform="matrix(1,0,0,1,337.22924340404296,655.7150014426286) translate(231.15061728395065 20.155555555555555)"/><use xlink:href="#J" transform="matrix(1,0,0,1,337.22924340404296,690.7150014426286) translate(11.2 20.155555555555555)"/><use xlink:href="#K" transform="matrix(1,0,0,1,337.22924340404296,690.7150014426286) translate(152.33580246913584 20.155555555555555)"/><use xlink:href="#L" transform="matrix(1,0,0,1,337.22924340404296,725.7150014426286) translate(11.2 20.155555555555555)"/><use xlink:href="#M" transform="matrix(1,0,0,1,337.22924340404296,725.7150014426286) translate(63.49629629629631 20.155555555555555)"/><use xlink:href="#N" transform="matrix(1,0,0,1,337.22924340404296,760.7150014426286) translate(11.2 20.155555555555555)"/><use xlink:href="#O" transform="matrix(1,0,0,1,337.22924340404296,760.7150014426286) translate(80.28641975308643 20.155555555555555)"/><path d="M848.83 548.2a5 5 0 0 1 5-5h322a5 5 0 0 1 5 5v205a5 5 0 0 1-5 5h-322a5 5 0 0 1-5-5z" fill="#fff"/><path d="M848.83 618.2v36h332v-36M848.83 688.2v36h332v-36" fill="#e6e6e6"/><path d="M848.83 583.2v-35a5 5 0 0 1 5-5h322a5 5 0 0 1 5 5v35" fill="#54c45e"/><path d="M848.83 548.2a5 5 0 0 1 5-5h322a5 5 0 0 1 5 5v205a5 5 0 0 1-5 5h-322a5 5 0 0 1-5-5zM848.83 583.2h332" stroke="#333" fill="none"/><use xlink:href="#P" transform="matrix(1,0,0,1,858.8254634170249,543.2150014426286) translate(11.2 25.15555555555556)"/><use xlink:href="#B" transform="matrix(1,0,0,1,853.8254634170249,585.7150014426286) translate(11.2 20.155555555555555)"/><use xlink:href="#C" transform="matrix(1,0,0,1,853.8254634170249,585.7150014426286) translate(34.85432098765432 20.155555555555555)"/><use xlink:href="#Q" transform="matrix(1,0,0,1,853.8254634170249,620.7150014426286) translate(11.2 20.155555555555555)"/><use xlink:href="#M" transform="matrix(1,0,0,1,853.8254634170249,620.7150014426286) translate(65.47160493827161 20.155555555555555)"/><use xlink:href="#D" transform="matrix(1,0,0,1,853.8254634170249,655.7150014426286) translate(11.2 20.155555555555555)"/><use xlink:href="#E" transform="matrix(1,0,0,1,853.8254634170249,655.7150014426286) translate(79.2493827160494 20.155555555555555)"/><use xlink:href="#H" transform="matrix(1,0,0,1,853.8254634170249,655.7150014426286) translate(138.4098765432099 20.155555555555555)"/><use xlink:href="#I" transform="matrix(1,0,0,1,853.8254634170249,655.7150014426286) translate(197.5703703703704 20.155555555555555)"/><use xlink:href="#R" transform="matrix(1,0,0,1,853.8254634170249,690.7150014426286) translate(11.2 20.155555555555555)"/><use xlink:href="#S" transform="matrix(1,0,0,1,853.8254634170249,690.7150014426286) translate(144.48395061728397 20.155555555555555)"/><use xlink:href="#T" transform="matrix(1,0,0,1,853.8254634170249,690.7150014426286) translate(241.07654320987658 20.155555555555555)"/><use xlink:href="#U" transform="matrix(1,0,0,1,853.8254634170249,725.7150014426286) translate(11.2 20.155555555555555)"/><use xlink:href="#E" transform="matrix(1,0,0,1,853.8254634170249,725.7150014426286) translate(156.28641975308645 20.155555555555555)"/><use xlink:href="#H" transform="matrix(1,0,0,1,853.8254634170249,725.7150014426286) translate(215.44691358024696 20.155555555555555)"/><use xlink:href="#I" transform="matrix(1,0,0,1,853.8254634170249,725.7150014426286) translate(274.60740740740744 20.155555555555555)"/><path d="M631.42 199.47a5 5 0 0 1 5-5h216.74a5 5 0 0 1 5 5v240a5 5 0 0 1-5 5H636.42a5 5 0 0 1-5-5z" fill="#fff"/><path d="M631.42 269.46v36h226.74v-36M631.42 339.46v36h226.74v-36M631.42 409.46v30a5 5 0 0 0 5 5h216.74a5 5 0 0 0 5-5v-30" fill="#e6e6e6"/><path d="M631.42 234.47v-35a5 5 0 0 1 5-5h216.74a5 5 0 0 1 5 5v35" fill="#54c45e"/><path d="M631.42 199.47a5 5 0 0 1 5-5h216.74a5 5 0 0 1 5 5v240a5 5 0 0 1-5 5H636.42a5 5 0 0 1-5-5zM631.42 234.47h226.74" stroke="#333" fill="none"/><use xlink:href="#V" transform="matrix(1,0,0,1,641.4163206778383,194.46499240443046) translate(11.2 25.15555555555556)"/><use xlink:href="#B" transform="matrix(1,0,0,1,636.4163206778383,236.96499240443046) translate(11.2 20.155555555555555)"/><use xlink:href="#C" transform="matrix(1,0,0,1,636.4163206778383,236.96499240443046) translate(34.85432098765432 20.155555555555555)"/><g><use xlink:href="#W" transform="matrix(1,0,0,1,636.4163206778383,271.96499240443046) translate(11.2 20.155555555555555)"/><use xlink:href="#M" transform="matrix(1,0,0,1,636.4163206778383,271.96499240443046) translate(99.99012345679013 20.155555555555555)"/></g><g><use xlink:href="#X" transform="matrix(1,0,0,1,636.4163206778383,306.96499240443046) translate(11.2 20.155555555555555)"/><use xlink:href="#Y" transform="matrix(1,0,0,1,636.4163206778383,306.96499240443046) translate(145.42222222222222 20.155555555555555)"/></g><g><use xlink:href="#Z" transform="matrix(1,0,0,1,636.4163206778383,341.96499240443046) translate(11.2 20.155555555555555)"/><use xlink:href="#Y" transform="matrix(1,0,0,1,636.4163206778383,341.96499240443046) translate(134.50864197530865 20.155555555555555)"/></g><g><use xlink:href="#aa" transform="matrix(1,0,0,1,636.4163206778383,376.96499240443046) translate(11.2 20.155555555555555)"/><use xlink:href="#S" transform="matrix(1,0,0,1,636.4163206778383,376.96499240443046) translate(78.26172839506174 20.155555555555555)"/><use xlink:href="#T" transform="matrix(1,0,0,1,636.4163206778383,376.96499240443046) translate(174.85432098765435 20.155555555555555)"/></g><g><use xlink:href="#ab" transform="matrix(1,0,0,1,636.4163206778383,411.96499240443046) translate(11.2 20.155555555555555)"/><use xlink:href="#ac" transform="matrix(1,0,0,1,636.4163206778383,411.96499240443046) translate(94.162962962963 20.155555555555555)"/></g><path d="M807.6 464.96v22.88a6 6 0 0 0 6 6h195.22a6 6 0 0 1 6 6v3.38" stroke="#3a414a" fill="none"/><path d="M797.6 454.96h20M807.6 444.96v20M797.6 464.96h20" stroke="#3a414a" fill="#fff"/><path d="M1004.82 542.5l10-20 10 20" stroke="#3a414a" fill="#fff" fill-opacity="0"/><path d="M1014.82 542.5v-20M1024.82 512.5c0 5.5-4.47 10-10 10-5.52 0-10-4.5-10-10 0-5.53 4.48-10 10-10 5.53 0 10 4.47 10 10" stroke="#3a414a" fill="#fff"/><path d="M676.83 464.96v22.88a6 6 0 0 1-6 6h-154.7a6 6 0 0 0-6 6v3.38" stroke="#3a414a" fill="none"/><path d="M666.83 454.96h20M676.83 444.96v20M666.83 464.96h20" stroke="#3a414a" fill="#fff"/><path d="M500.12 542.5l10-20 10 20" stroke="#3a414a" fill="#fff" fill-opacity="0"/><path d="M510.12 542.5v-20M520.12 512.5c0 5.5-4.48 10-10 10s-10-4.5-10-10c0-5.53 4.48-10 10-10s10 4.47 10 10" stroke="#3a414a" fill="#fff"/><path d="M728 670.7h80.83" stroke="#3a414a" fill="none"/><path d="M688.73 660.7l20 10-20 10" stroke="#3a414a" fill="#fff" fill-opacity="0"/><path d="M688.73 670.7h20M728.73 670.7c0 5.54-4.47 10-10 10-5.52 0-10-4.46-10-10 0-5.5 4.48-10 10-10 5.53 0 10 4.5 10 10M838.33 660.7v20M848.33 670.7h-20M828.33 670.7c0 5.54-4.48 10-10 10-5.53 0-10-4.46-10-10 0-5.5 4.47-10 10-10 5.52 0 10 4.5 10 10" stroke="#3a414a" fill="#fff"/><path d="M1118.05 235.47a5 5 0 0 1 5-5h291.08a5 5 0 0 1 5 5v100a5 5 0 0 1-5 5h-291.08a5 5 0 0 1-5-5z" fill="#fff"/><path d="M1118.05 305.46v30a5 5 0 0 0 5 5h291.08a5 5 0 0 0 5-5v-30" fill="#e6e6e6"/><path d="M1118.05 270.46v-35a5 5 0 0 1 5-5h291.08a5 5 0 0 1 5 5v35" fill="#54c45e"/><path d="M1118.05 235.47a5 5 0 0 1 5-5h291.08a5 5 0 0 1 5 5v100a5 5 0 0 1-5 5h-291.08a5 5 0 0 1-5-5zM1118.05 270.46h301.08" stroke="#333" fill="none"/><g><use xlink:href="#ad" transform="matrix(1,0,0,1,1128.0535314432486,230.46499240443046) translate(11.2 25.15555555555556)"/></g><g><use xlink:href="#B" transform="matrix(1,0,0,1,1123.0535314432486,272.96499240443046) translate(11.2 20.155555555555555)"/><use xlink:href="#C" transform="matrix(1,0,0,1,1123.0535314432486,272.96499240443046) translate(34.85432098765432 20.155555555555555)"/></g><g><use xlink:href="#Q" transform="matrix(1,0,0,1,1123.0535314432486,307.96499240443046) translate(11.2 20.155555555555555)"/><use xlink:href="#M" transform="matrix(1,0,0,1,1123.0535314432486,307.96499240443046) translate(65.47160493827161 20.155555555555555)"/></g><path d="M1220.82 670.7h41.77a6 6 0 0 0 6-6V360.98" stroke="#3a414a" fill="none"/><path d="M1181.55 660.7l20 10-20 10" stroke="#3a414a" fill="#fff" fill-opacity="0"/><path d="M1181.55 670.7h20M1221.55 670.7c0 5.54-4.48 10-10 10-5.53 0-10-4.46-10-10 0-5.5 4.47-10 10-10 5.52 0 10 4.5 10 10M1258.6 350.96h20M1268.6 340.96v20M1258.6 360.96h20" stroke="#3a414a" fill="#fff"/><defs><path fill="#3a414a" d="M177-190C167-65 218 103 67 71c-23-6-38-20-44-43l32-5c15 47 100 32 89-28v-30C133-14 115 1 83 1 29 1 15-40 15-95c0-56 16-97 71-98 29-1 48 16 59 35 1-10 0-23 2-32h30zM94-22c36 0 50-32 50-73 0-42-14-75-50-75-39 0-46 34-46 75s6 73 46 73" id="ae"/><path fill="#3a414a" d="M100-194c63 0 86 42 84 106H49c0 40 14 67 53 68 26 1 43-12 49-29l28 8c-11 28-37 45-77 45C44 4 14-33 15-96c1-61 26-98 85-98zm52 81c6-60-76-77-97-28-3 7-6 17-6 28h103" id="af"/><path fill="#3a414a" d="M117-194c89-4 53 116 60 194h-32v-121c0-31-8-49-39-48C34-167 62-67 57 0H25l-1-190h30c1 10-1 24 2 32 11-22 29-35 61-36" id="ag"/><path fill="#3a414a" d="M114-163C36-179 61-72 57 0H25l-1-190h30c1 12-1 29 2 39 6-27 23-49 58-41v29" id="ah"/><path fill="#3a414a" d="M141-36C126-15 110 5 73 4 37 3 15-17 15-53c-1-64 63-63 125-63 3-35-9-54-41-54-24 1-41 7-42 31l-33-3c5-37 33-52 76-52 45 0 72 20 72 64v82c-1 20 7 32 28 27v20c-31 9-61-2-59-35zM48-53c0 20 12 33 32 33 41-3 63-29 60-74-43 2-92-5-92 41" id="ai"/><path fill="#3a414a" d="M59-47c-2 24 18 29 38 22v24C64 9 27 4 27-40v-127H5v-23h24l9-43h21v43h35v23H59v120" id="aj"/><path fill="#3a414a" d="M85-194c31 0 48 13 60 33l-1-100h32l1 261h-30c-2-10 0-23-3-31C134-8 116 4 85 4 32 4 16-35 15-94c0-66 23-100 70-100zm9 24c-40 0-46 34-46 75 0 40 6 74 45 74 42 0 51-32 51-76 0-42-9-74-50-73" id="ak"/><g id="a"><use transform="matrix(0.06172839506172839,0,0,0.06172839506172839,0,0)" xlink:href="#ae"/><use transform="matrix(0.06172839506172839,0,0,0.06172839506172839,12.345679012345679,0)" xlink:href="#af"/><use transform="matrix(0.06172839506172839,0,0,0.06172839506172839,24.691358024691358,0)" xlink:href="#ag"/><use transform="matrix(0.06172839506172839,0,0,0.06172839506172839,37.03703703703704,0)" xlink:href="#af"/><use transform="matrix(0.06172839506172839,0,0,0.06172839506172839,49.382716049382715,0)" xlink:href="#ah"/><use transform="matrix(0.06172839506172839,0,0,0.06172839506172839,56.72839506172839,0)" xlink:href="#ai"/><use transform="matrix(0.06172839506172839,0,0,0.06172839506172839,69.07407407407408,0)" xlink:href="#aj"/><use transform="matrix(0.06172839506172839,0,0,0.06172839506172839,75.24691358024691,0)" xlink:href="#af"/><use transform="matrix(0.06172839506172839,0,0,0.06172839506172839,87.5925925925926,0)" xlink:href="#ak"/></g><path fill="#3a414a" d="M115-194c53 0 69 39 70 98 0 66-23 100-70 100C84 3 66-7 56-30L54 0H23l1-261h32v101c10-23 28-34 59-34zm-8 174c40 0 45-34 45-75 0-40-5-75-45-74-42 0-51 32-51 76 0 43 10 73 51 73" id="al"/><path fill="#3a414a" d="M179-190L93 31C79 59 56 82 12 73V49c39 6 53-20 64-50L1-190h34L92-34l54-156h33" id="am"/><g id="b"><use transform="matrix(0.06172839506172839,0,0,0.06172839506172839,0,0)" xlink:href="#al"/><use transform="matrix(0.06172839506172839,0,0,0.06172839506172839,12.345679012345679,0)" xlink:href="#am"/></g><path fill="#3a414a" d="M106-169C34-169 62-67 57 0H25v-261h32l-1 103c12-21 28-36 61-36 89 0 53 116 60 194h-32v-121c2-32-8-49-39-48" id="an"/><g id="c"><use transform="matrix(0.06172839506172839,0,0,0.06172839506172839,0,0)" xlink:href="#aj"/><use transform="matrix(0.06172839506172839,0,0,0.06172839506172839,6.172839506172839,0)" xlink:href="#an"/><use transform="matrix(0.06172839506172839,0,0,0.06172839506172839,18.51851851851852,0)" xlink:href="#af"/></g><path fill="#3a414a" d="M210-169c-67 3-38 105-44 169h-31v-121c0-29-5-50-35-48C34-165 62-65 56 0H25l-1-190h30c1 10-1 24 2 32 10-44 99-50 107 0 11-21 27-35 58-36 85-2 47 119 55 194h-31v-121c0-29-5-49-35-48" id="ao"/><path fill="#3a414a" d="M24-231v-30h32v30H24zM24 0v-190h32V0H24" id="ap"/><path fill="#3a414a" d="M135-143c-3-34-86-38-87 0 15 53 115 12 119 90S17 21 10-45l28-5c4 36 97 45 98 0-10-56-113-15-118-90-4-57 82-63 122-42 12 7 21 19 24 35" id="aq"/><path fill="#3a414a" d="M100-194c62-1 85 37 85 99 1 63-27 99-86 99S16-35 15-95c0-66 28-99 85-99zM99-20c44 1 53-31 53-75 0-43-8-75-51-75s-53 32-53 75 10 74 51 75" id="ar"/><g id="d"><use transform="matrix(0.06172839506172839,0,0,0.06172839506172839,0,0)" xlink:href="#ai"/><use transform="matrix(0.06172839506172839,0,0,0.06172839506172839,12.345679012345679,0)" xlink:href="#ak"/><use transform="matrix(0.06172839506172839,0,0,0.06172839506172839,24.691358024691358,0)" xlink:href="#ao"/><use transform="matrix(0.06172839506172839,0,0,0.06172839506172839,43.148148148148145,0)" xlink:href="#ap"/><use transform="matrix(0.06172839506172839,0,0,0.06172839506172839,48.02469135802469,0)" xlink:href="#ag"/><use transform="matrix(0.06172839506172839,0,0,0.06172839506172839,60.37037037037037,0)" xlink:href="#ap"/><use transform="matrix(0.06172839506172839,0,0,0.06172839506172839,65.24691358024691,0)" xlink:href="#aq"/><use transform="matrix(0.06172839506172839,0,0,0.06172839506172839,76.35802469135803,0)" xlink:href="#aj"/><use transform="matrix(0.06172839506172839,0,0,0.06172839506172839,82.53086419753086,0)" xlink:href="#ah"/><use transform="matrix(0.06172839506172839,0,0,0.06172839506172839,89.87654320987654,0)" xlink:href="#ai"/><use transform="matrix(0.06172839506172839,0,0,0.06172839506172839,102.22222222222223,0)" xlink:href="#aj"/><use transform="matrix(0.06172839506172839,0,0,0.06172839506172839,108.39506172839506,0)" xlink:href="#ar"/><use transform="matrix(0.06172839506172839,0,0,0.06172839506172839,120.74074074074075,0)" xlink:href="#ah"/></g><path fill="#3a414a" d="M101-234c-31-9-42 10-38 44h38v23H63V0H32v-167H5v-23h27c-7-52 17-82 69-68v24" id="as"/><g id="e"><use transform="matrix(0.06172839506172839,0,0,0.06172839506172839,0,0)" xlink:href="#as"/><use transform="matrix(0.06172839506172839,0,0,0.06172839506172839,6.172839506172839,0)" xlink:href="#ar"/><use transform="matrix(0.06172839506172839,0,0,0.06172839506172839,18.51851851851852,0)" xlink:href="#ah"/></g><path fill="#3a414a" d="M24 0v-261h32V0H24" id="at"/><path fill="#3a414a" d="M96-169c-40 0-48 33-48 73s9 75 48 75c24 0 41-14 43-38l32 2c-6 37-31 61-74 61-59 0-76-41-82-99-10-93 101-131 147-64 4 7 5 14 7 22l-32 3c-4-21-16-35-41-35" id="au"/><path fill="#3a414a" d="M0 4l72-265h28L28 4H0" id="av"/><g id="f"><use transform="matrix(0.06172839506172839,0,0,0.06172839506172839,0,0)" xlink:href="#ai"/><use transform="matrix(0.06172839506172839,0,0,0.06172839506172839,12.345679012345679,0)" xlink:href="#ag"/><use transform="matrix(0.06172839506172839,0,0,0.06172839506172839,24.691358024691358,0)" xlink:href="#ai"/><use transform="matrix(0.06172839506172839,0,0,0.06172839506172839,37.03703703703704,0)" xlink:href="#at"/><use transform="matrix(0.06172839506172839,0,0,0.06172839506172839,41.91358024691358,0)" xlink:href="#am"/><use transform="matrix(0.06172839506172839,0,0,0.06172839506172839,53.0246913580247,0)" xlink:href="#aj"/><use transform="matrix(0.06172839506172839,0,0,0.06172839506172839,59.19753086419754,0)" xlink:href="#ap"/><use transform="matrix(0.06172839506172839,0,0,0.06172839506172839,64.07407407407408,0)" xlink:href="#au"/><use transform="matrix(0.06172839506172839,0,0,0.06172839506172839,75.18518518518519,0)" xlink:href="#aq"/><use transform="matrix(0.06172839506172839,0,0,0.06172839506172839,86.2962962962963,0)" xlink:href="#av"/><use transform="matrix(0.06172839506172839,0,0,0.06172839506172839,92.46913580246914,0)" xlink:href="#aj"/><use transform="matrix(0.06172839506172839,0,0,0.06172839506172839,98.64197530864197,0)" xlink:href="#ah"/><use transform="matrix(0.06172839506172839,0,0,0.06172839506172839,105.98765432098766,0)" xlink:href="#af"/><use transform="matrix(0.06172839506172839,0,0,0.06172839506172839,118.33333333333334,0)" xlink:href="#ag"/><use transform="matrix(0.06172839506172839,0,0,0.06172839506172839,130.679012345679,0)" xlink:href="#ak"/><use transform="matrix(0.06172839506172839,0,0,0.06172839506172839,143.02469135802468,0)" xlink:href="#aq"/></g><path fill="#3a414a" d="M84 4C-5 8 30-112 23-190h32v120c0 31 7 50 39 49 72-2 45-101 50-169h31l1 190h-30c-1-10 1-25-2-33-11 22-28 36-60 37" id="aw"/><path fill="#3a414a" d="M33 0v-38h34V0H33" id="ax"/><g id="g"><use transform="matrix(0.06172839506172839,0,0,0.06172839506172839,0,0)" xlink:href="#au"/><use transform="matrix(0.06172839506172839,0,0,0.06172839506172839,11.11111111111111,0)" xlink:href="#ai"/><use transform="matrix(0.06172839506172839,0,0,0.06172839506172839,23.45679012345679,0)" xlink:href="#at"/><use transform="matrix(0.06172839506172839,0,0,0.06172839506172839,28.333333333333336,0)" xlink:href="#au"/><use transform="matrix(0.06172839506172839,0,0,0.06172839506172839,39.44444444444444,0)" xlink:href="#aw"/><use transform="matrix(0.06172839506172839,0,0,0.06172839506172839,51.79012345679012,0)" xlink:href="#at"/><use transform="matrix(0.06172839506172839,0,0,0.06172839506172839,56.666666666666664,0)" xlink:href="#ai"/><use transform="matrix(0.06172839506172839,0,0,0.06172839506172839,69.01234567901234,0)" xlink:href="#aj"/><use transform="matrix(0.06172839506172839,0,0,0.06172839506172839,75.18518518518518,0)" xlink:href="#ap"/><use transform="matrix(0.06172839506172839,0,0,0.06172839506172839,80.06172839506172,0)" xlink:href="#ar"/><use transform="matrix(0.06172839506172839,0,0,0.06172839506172839,92.4074074074074,0)" xlink:href="#ag"/><use transform="matrix(0.06172839506172839,0,0,0.06172839506172839,104.75308641975309,0)" xlink:href="#aq"/><use transform="matrix(0.06172839506172839,0,0,0.06172839506172839,115.8641975308642,0)" xlink:href="#ax"/></g><path fill="#3a414a" d="M127-220V0H93v-220H8v-28h204v28h-85" id="ay"/><g id="h"><use transform="matrix(0.06172839506172839,0,0,0.06172839506172839,0,0)" xlink:href="#ay"/><use transform="matrix(0.06172839506172839,0,0,0.06172839506172839,13.518518518518517,0)" xlink:href="#an"/><use transform="matrix(0.06172839506172839,0,0,0.06172839506172839,25.864197530864196,0)" xlink:href="#af"/></g><g id="i"><use transform="matrix(0.06172839506172839,0,0,0.06172839506172839,0,0)" xlink:href="#aw"/><use transform="matrix(0.06172839506172839,0,0,0.06172839506172839,12.345679012345679,0)" xlink:href="#aq"/><use transform="matrix(0.06172839506172839,0,0,0.06172839506172839,23.45679012345679,0)" xlink:href="#af"/><use transform="matrix(0.06172839506172839,0,0,0.06172839506172839,35.80246913580247,0)" xlink:href="#ah"/></g><g id="j"><use transform="matrix(0.06172839506172839,0,0,0.06172839506172839,0,0)" xlink:href="#aq"/><use transform="matrix(0.06172839506172839,0,0,0.06172839506172839,11.11111111111111,0)" xlink:href="#af"/><use transform="matrix(0.06172839506172839,0,0,0.06172839506172839,23.45679012345679,0)" xlink:href="#at"/><use transform="matrix(0.06172839506172839,0,0,0.06172839506172839,28.333333333333336,0)" xlink:href="#af"/><use transform="matrix(0.06172839506172839,0,0,0.06172839506172839,40.67901234567901,0)" xlink:href="#au"/><use transform="matrix(0.06172839506172839,0,0,0.06172839506172839,51.79012345679013,0)" xlink:href="#aj"/><use transform="matrix(0.06172839506172839,0,0,0.06172839506172839,57.96296296296297,0)" xlink:href="#aq"/></g><g id="k"><use transform="matrix(0.06172839506172839,0,0,0.06172839506172839,0,0)" xlink:href="#ar"/><use transform="matrix(0.06172839506172839,0,0,0.06172839506172839,12.345679012345679,0)" xlink:href="#ag"/><use transform="matrix(0.06172839506172839,0,0,0.06172839506172839,24.691358024691358,0)" xlink:href="#af"/></g><path fill="#3a414a" d="M206 0h-36l-40-164L89 0H53L-1-190h32L70-26l43-164h34l41 164 42-164h31" id="az"/><g id="l"><use transform="matrix(0.06172839506172839,0,0,0.06172839506172839,0,0)" xlink:href="#az"/><use transform="matrix(0.06172839506172839,0,0,0.06172839506172839,15.987654320987653,0)" xlink:href="#an"/><use transform="matrix(0.06172839506172839,0,0,0.06172839506172839,28.333333333333332,0)" xlink:href="#af"/><use transform="matrix(0.06172839506172839,0,0,0.06172839506172839,40.67901234567901,0)" xlink:href="#ag"/></g><g id="m"><use transform="matrix(0.06172839506172839,0,0,0.06172839506172839,0,0)" xlink:href="#au"/><use transform="matrix(0.06172839506172839,0,0,0.06172839506172839,11.11111111111111,0)" xlink:href="#ah"/><use transform="matrix(0.06172839506172839,0,0,0.06172839506172839,18.45679012345679,0)" xlink:href="#af"/><use transform="matrix(0.06172839506172839,0,0,0.06172839506172839,30.80246913580247,0)" xlink:href="#ai"/><use transform="matrix(0.06172839506172839,0,0,0.06172839506172839,43.148148148148145,0)" xlink:href="#aj"/><use transform="matrix(0.06172839506172839,0,0,0.06172839506172839,49.32098765432099,0)" xlink:href="#ap"/><use transform="matrix(0.06172839506172839,0,0,0.06172839506172839,54.19753086419753,0)" xlink:href="#ag"/><use transform="matrix(0.06172839506172839,0,0,0.06172839506172839,66.54320987654322,0)" xlink:href="#ae"/></g><use transform="matrix(0.06172839506172839,0,0,0.06172839506172839,0,0)" xlink:href="#ai" id="n"/><g id="o"><use transform="matrix(0.06172839506172839,0,0,0.06172839506172839,0,0)" xlink:href="#al"/><use transform="matrix(0.06172839506172839,0,0,0.06172839506172839,12.345679012345679,0)" xlink:href="#aw"/><use transform="matrix(0.06172839506172839,0,0,0.06172839506172839,24.691358024691358,0)" xlink:href="#ak"/><use transform="matrix(0.06172839506172839,0,0,0.06172839506172839,37.03703703703704,0)" xlink:href="#ae"/><use transform="matrix(0.06172839506172839,0,0,0.06172839506172839,49.382716049382715,0)" xlink:href="#af"/><use transform="matrix(0.06172839506172839,0,0,0.06172839506172839,61.72839506172839,0)" xlink:href="#aj"/></g><g id="p"><use transform="matrix(0.06172839506172839,0,0,0.06172839506172839,0,0)" xlink:href="#au"/><use transform="matrix(0.06172839506172839,0,0,0.06172839506172839,11.11111111111111,0)" xlink:href="#ai"/><use transform="matrix(0.06172839506172839,0,0,0.06172839506172839,23.45679012345679,0)" xlink:href="#aj"/><use transform="matrix(0.06172839506172839,0,0,0.06172839506172839,29.62962962962963,0)" xlink:href="#af"/><use transform="matrix(0.06172839506172839,0,0,0.06172839506172839,41.97530864197531,0)" xlink:href="#ae"/><use transform="matrix(0.06172839506172839,0,0,0.06172839506172839,54.32098765432099,0)" xlink:href="#ar"/><use transform="matrix(0.06172839506172839,0,0,0.06172839506172839,66.66666666666667,0)" xlink:href="#ah"/><use transform="matrix(0.06172839506172839,0,0,0.06172839506172839,74.01234567901236,0)" xlink:href="#am"/></g><path d="M25-224v-37h50v37H25zM25 0v-190h50V0H25" id="aA"/><path d="M182-130c37 4 62 22 62 59C244 23 116-4 24 0v-248c84 5 203-23 205 63 0 31-19 50-47 55zM76-148c40-3 101 13 101-30 0-44-60-28-101-31v61zm0 110c48-3 116 14 116-37 0-48-69-32-116-35v72" id="aB"/><path d="M85 4C-2 5 27-109 22-190h50c7 57-23 150 33 157 60-5 35-97 40-157h50l1 190h-47c-2-12 1-28-3-38-12 25-28 42-61 42" id="aC"/><path d="M88-194c31-1 46 15 58 34l-1-101h50l1 261h-48c-2-10 0-23-3-31C134-8 116 4 84 4 32 4 16-41 15-95c0-56 19-97 73-99zm17 164c33 0 40-30 41-66 1-37-9-64-41-64s-38 30-39 65c0 43 13 65 39 65" id="aD"/><path d="M195-6C206 82 75 100 31 46c-4-6-6-13-8-21l49-6c3 16 16 24 34 25 40 0 42-37 40-79-11 22-30 35-61 35-53 0-70-43-70-97 0-56 18-96 73-97 30 0 46 14 59 34l2-30h47zm-90-29c32 0 41-27 41-63 0-35-9-62-40-62-32 0-39 29-40 63 0 36 9 62 39 62" id="aE"/><path d="M185-48c-13 30-37 53-82 52C43 2 14-33 14-96s30-98 90-98c62 0 83 45 84 108H66c0 31 8 55 39 56 18 0 30-7 34-22zm-45-69c5-46-57-63-70-21-2 6-4 13-4 21h74" id="aF"/><path d="M115-3C79 11 28 4 28-45v-112H4v-33h27l15-45h31v45h36v33H77v99c-1 23 16 31 38 25v30" id="aG"/><path d="M25 0v-261h50V0H25" id="aH"/><path d="M123 10C108 53 80 86 19 72V37c35 8 53-11 59-39L3-190h52l48 148c12-52 28-100 44-148h51" id="aI"/><path d="M121-226c-27-7-43 5-38 36h38v33H83V0H34v-157H6v-33h28c-9-59 32-81 87-68v32" id="aJ"/><path d="M128-127c34 4 56 21 59 58 7 91-148 94-172 28-4-9-6-17-7-26l51-5c1 24 16 35 40 36 23 0 39-12 38-36-1-31-31-36-65-34v-40c32 2 59-3 59-33 0-20-13-33-34-33s-33 13-35 32l-50-3c6-44 37-68 86-68 50 0 83 20 83 66 0 35-22 52-53 58" id="aK"/><path d="M115-159c48 0 72 30 72 78 0 54-30 85-83 85-64 0-91-50-91-122 0-98 58-163 141-120 15 8 21 24 27 44l-47 6c-5-31-48-31-61-4-7 14-11 33-11 60 9-17 28-27 53-27zM102-35c24 0 36-20 36-45s-11-43-37-43c-23 0-36 14-36 38 0 27 11 50 37 50" id="aL"/><path d="M139-81c0-46-55-55-73-27H18l9-140h149v37H72l-4 63c44-38 133-4 122 66C201 21 21 35 11-62l49-4c5 18 15 30 39 30 26 0 40-18 40-45" id="aM"/><g id="q"><use transform="matrix(0.0728395061728395,0,0,0.0728395061728395,0,0)" xlink:href="#aA"/><use transform="matrix(0.0728395061728395,0,0,0.0728395061728395,7.28395061728395,0)" xlink:href="#aB"/><use transform="matrix(0.0728395061728395,0,0,0.0728395061728395,26.14938271604938,0)" xlink:href="#aC"/><use transform="matrix(0.0728395061728395,0,0,0.0728395061728395,42.10123456790124,0)" xlink:href="#aD"/><use transform="matrix(0.0728395061728395,0,0,0.0728395061728395,58.05308641975308,0)" xlink:href="#aE"/><use transform="matrix(0.0728395061728395,0,0,0.0728395061728395,74.00493827160493,0)" xlink:href="#aF"/><use transform="matrix(0.0728395061728395,0,0,0.0728395061728395,88.57283950617283,0)" xlink:href="#aG"/><use transform="matrix(0.0728395061728395,0,0,0.0728395061728395,97.24074074074073,0)" xlink:href="#aH"/><use transform="matrix(0.0728395061728395,0,0,0.0728395061728395,104.52469135802468,0)" xlink:href="#aI"/><use transform="matrix(0.0728395061728395,0,0,0.0728395061728395,119.09259259259258,0)" xlink:href="#aA"/><use transform="matrix(0.0728395061728395,0,0,0.0728395061728395,126.37654320987653,0)" xlink:href="#aJ"/><use transform="matrix(0.0728395061728395,0,0,0.0728395061728395,135.04444444444442,0)" xlink:href="#aI"/><use transform="matrix(0.0728395061728395,0,0,0.0728395061728395,149.61234567901232,0)" xlink:href="#aK"/><use transform="matrix(0.0728395061728395,0,0,0.0728395061728395,164.18024691358022,0)" xlink:href="#aL"/><use transform="matrix(0.0728395061728395,0,0,0.0728395061728395,178.74814814814812,0)" xlink:href="#aM"/></g><path d="M153-248C145-148 188 4 80 4 36 3 13-21 6-62l32-5c4 25 16 42 43 43 27 0 39-20 39-49v-147H72v-28h81" id="aN"/><path d="M141-36C126-15 110 5 73 4 37 3 15-17 15-53c-1-64 63-63 125-63 3-35-9-54-41-54-24 1-41 7-42 31l-33-3c5-37 33-52 76-52 45 0 72 20 72 64v82c-1 20 7 32 28 27v20c-31 9-61-2-59-35zM48-53c0 20 12 33 32 33 41-3 63-29 60-74-43 2-92-5-92 41" id="aO"/><path d="M96-169c-40 0-48 33-48 73s9 75 48 75c24 0 41-14 43-38l32 2c-6 37-31 61-74 61-59 0-76-41-82-99-10-93 101-131 147-64 4 7 5 14 7 22l-32 3c-4-21-16-35-41-35" id="aP"/><path d="M100-194c62-1 85 37 85 99 1 63-27 99-86 99S16-35 15-95c0-66 28-99 85-99zM99-20c44 1 53-31 53-75 0-43-8-75-51-75s-53 32-53 75 10 74 51 75" id="aQ"/><path d="M115-194c53 0 69 39 70 98 0 66-23 100-70 100C84 3 66-7 56-30L54 0H23l1-261h32v101c10-23 28-34 59-34zm-8 174c40 0 45-34 45-75 0-40-5-75-45-74-42 0-51 32-51 76 0 43 10 73 51 73" id="aR"/><g id="r"><use transform="matrix(0.04248971193415638,0,0,0.04248971193415638,0,0)" xlink:href="#aN"/><use transform="matrix(0.04248971193415638,0,0,0.04248971193415638,7.648148148148148,0)" xlink:href="#aO"/><use transform="matrix(0.04248971193415638,0,0,0.04248971193415638,16.14609053497942,0)" xlink:href="#aP"/><use transform="matrix(0.04248971193415638,0,0,0.04248971193415638,23.79423868312757,0)" xlink:href="#aQ"/><use transform="matrix(0.04248971193415638,0,0,0.04248971193415638,32.29218106995884,0)" xlink:href="#aR"/></g><path d="M160-131c35 5 61 23 61 61C221 17 115-2 30 0v-248c76 3 177-17 177 60 0 33-19 50-47 57zm-97-11c50-1 110 9 110-42 0-47-63-36-110-37v79zm0 115c55-2 124 14 124-45 0-56-70-42-124-44v89" id="aS"/><path d="M24 0v-261h32V0H24" id="aT"/><path d="M24-231v-30h32v30H24zM24 0v-190h32V0H24" id="aU"/><path d="M143 0L79-87 56-68V0H24v-261h32v163l83-92h37l-77 82L181 0h-38" id="aV"/><path d="M108 0H70L1-190h34L89-25l56-165h34" id="aW"/><g id="s"><use transform="matrix(0.04248971193415638,0,0,0.04248971193415638,0,0)" xlink:href="#aS"/><use transform="matrix(0.04248971193415638,0,0,0.04248971193415638,10.19753086419753,0)" xlink:href="#aO"/><use transform="matrix(0.04248971193415638,0,0,0.04248971193415638,18.695473251028805,0)" xlink:href="#aT"/><use transform="matrix(0.04248971193415638,0,0,0.04248971193415638,22.05216049382716,0)" xlink:href="#aU"/><use transform="matrix(0.04248971193415638,0,0,0.04248971193415638,25.408847736625514,0)" xlink:href="#aV"/><use transform="matrix(0.04248971193415638,0,0,0.04248971193415638,33.05699588477366,0)" xlink:href="#aQ"/><use transform="matrix(0.04248971193415638,0,0,0.04248971193415638,41.55493827160494,0)" xlink:href="#aW"/></g><path d="M68-38c1 34 0 65-14 84H32c9-13 17-26 17-46H33v-38h35" id="aX"/><use transform="matrix(0.04248971193415638,0,0,0.04248971193415638,0,0)" xlink:href="#aX" id="t"/><path d="M100-194c63 0 86 42 84 106H49c0 40 14 67 53 68 26 1 43-12 49-29l28 8c-11 28-37 45-77 45C44 4 14-33 15-96c1-61 26-98 85-98zm52 81c6-60-76-77-97-28-3 7-6 17-6 28h103" id="aY"/><g id="u"><use transform="matrix(0.04248971193415638,0,0,0.04248971193415638,0,0)" xlink:href="#aN"/><use transform="matrix(0.04248971193415638,0,0,0.04248971193415638,7.648148148148148,0)" xlink:href="#aO"/><use transform="matrix(0.04248971193415638,0,0,0.04248971193415638,16.14609053497942,0)" xlink:href="#aV"/><use transform="matrix(0.04248971193415638,0,0,0.04248971193415638,23.79423868312757,0)" xlink:href="#aY"/></g><path d="M205 0l-28-72H64L36 0H1l101-248h38L239 0h-34zm-38-99l-47-123c-12 45-31 82-46 123h93" id="aZ"/><path d="M59-47c-2 24 18 29 38 22v24C64 9 27 4 27-40v-127H5v-23h24l9-43h21v43h35v23H59v120" id="ba"/><g id="v"><use transform="matrix(0.04248971193415638,0,0,0.04248971193415638,0,0)" xlink:href="#aZ"/><use transform="matrix(0.04248971193415638,0,0,0.04248971193415638,10.19753086419753,0)" xlink:href="#aT"/><use transform="matrix(0.04248971193415638,0,0,0.04248971193415638,13.554218106995881,0)" xlink:href="#ba"/></g><path d="M32 76v-337h29V76H32" id="bb"/><use transform="matrix(0.04248971193415638,0,0,0.04248971193415638,0,0)" xlink:href="#bb" id="w"/><path d="M240 0l2-218c-23 76-54 145-80 218h-23L58-218 59 0H30v-248h44l77 211c21-75 51-140 76-211h43V0h-30" id="bc"/><path d="M179-190L93 31C79 59 56 82 12 73V49c39 6 53-20 64-50L1-190h34L92-34l54-156h33" id="bd"/><g id="x"><use transform="matrix(0.04248971193415638,0,0,0.04248971193415638,0,0)" xlink:href="#bc"/><use transform="matrix(0.04248971193415638,0,0,0.04248971193415638,12.704423868312757,0)" xlink:href="#aO"/><use transform="matrix(0.04248971193415638,0,0,0.04248971193415638,21.20236625514403,0)" xlink:href="#bd"/></g><path d="M54-142c48-35 137-8 131 61C196 18 31 33 14-55l32-4c7 23 22 37 52 37 35-1 51-22 54-58 4-55-73-65-99-34H22l8-134h141v27H59" id="be"/><g id="y"><use transform="matrix(0.04248971193415638,0,0,0.04248971193415638,0,0)" xlink:href="#be"/><use transform="matrix(0.04248971193415638,0,0,0.04248971193415638,8.497942386831275,0)" xlink:href="#aX"/></g><path d="M101-251c82-7 93 87 43 132L82-64C71-53 59-42 53-27h129V0H18c2-99 128-94 128-182 0-28-16-43-45-43s-46 15-49 41l-32-3c6-41 34-60 81-64" id="bf"/><path d="M101-251c68 0 85 55 85 127S166 4 100 4C33 4 14-52 14-124c0-73 17-127 87-127zm-1 229c47 0 54-49 54-102s-4-102-53-102c-51 0-55 48-55 102 0 53 5 102 54 102" id="bg"/><path d="M126-127c33 6 58 20 58 59 0 88-139 92-164 29-3-8-5-16-6-25l32-3c6 27 21 44 54 44 32 0 52-15 52-46 0-38-36-46-79-43v-28c39 1 72-4 72-42 0-27-17-43-46-43-28 0-47 15-49 41l-32-3c6-42 35-63 81-64 48-1 79 21 79 65 0 36-21 52-52 59" id="bh"/><g id="z"><use transform="matrix(0.04248971193415638,0,0,0.04248971193415638,0,0)" xlink:href="#bf"/><use transform="matrix(0.04248971193415638,0,0,0.04248971193415638,8.497942386831275,0)" xlink:href="#bg"/><use transform="matrix(0.04248971193415638,0,0,0.04248971193415638,16.99588477366255,0)" xlink:href="#bf"/><use transform="matrix(0.04248971193415638,0,0,0.04248971193415638,25.493827160493822,0)" xlink:href="#bh"/></g><path fill="#333" d="M59-47c-2 24 18 29 38 22v24C64 9 27 4 27-40v-127H5v-23h24l9-43h21v43h35v23H59v120" id="bi"/><path fill="#333" d="M114-163C36-179 61-72 57 0H25l-1-190h30c1 12-1 29 2 39 6-27 23-49 58-41v29" id="bj"/><path fill="#333" d="M141-36C126-15 110 5 73 4 37 3 15-17 15-53c-1-64 63-63 125-63 3-35-9-54-41-54-24 1-41 7-42 31l-33-3c5-37 33-52 76-52 45 0 72 20 72 64v82c-1 20 7 32 28 27v20c-31 9-61-2-59-35zM48-53c0 20 12 33 32 33 41-3 63-29 60-74-43 2-92-5-92 41" id="bk"/><path fill="#333" d="M117-194c89-4 53 116 60 194h-32v-121c0-31-8-49-39-48C34-167 62-67 57 0H25l-1-190h30c1 10-1 24 2 32 11-22 29-35 61-36" id="bl"/><path fill="#333" d="M135-143c-3-34-86-38-87 0 15 53 115 12 119 90S17 21 10-45l28-5c4 36 97 45 98 0-10-56-113-15-118-90-4-57 82-63 122-42 12 7 21 19 24 35" id="bm"/><path fill="#333" d="M96-169c-40 0-48 33-48 73s9 75 48 75c24 0 41-14 43-38l32 2c-6 37-31 61-74 61-59 0-76-41-82-99-10-93 101-131 147-64 4 7 5 14 7 22l-32 3c-4-21-16-35-41-35" id="bn"/><path fill="#333" d="M24-231v-30h32v30H24zM24 0v-190h32V0H24" id="bo"/><path fill="#333" d="M100-194c62-1 85 37 85 99 1 63-27 99-86 99S16-35 15-95c0-66 28-99 85-99zM99-20c44 1 53-31 53-75 0-43-8-75-51-75s-53 32-53 75 10 74 51 75" id="bp"/><g id="A"><use transform="matrix(0.04938271604938272,0,0,0.04938271604938272,0,0)" xlink:href="#bi"/><use transform="matrix(0.04938271604938272,0,0,0.04938271604938272,4.938271604938272,0)" xlink:href="#bj"/><use transform="matrix(0.04938271604938272,0,0,0.04938271604938272,10.814814814814817,0)" xlink:href="#bk"/><use transform="matrix(0.04938271604938272,0,0,0.04938271604938272,20.69135802469136,0)" xlink:href="#bl"/><use transform="matrix(0.04938271604938272,0,0,0.04938271604938272,30.567901234567906,0)" xlink:href="#bm"/><use transform="matrix(0.04938271604938272,0,0,0.04938271604938272,39.4567901234568,0)" xlink:href="#bk"/><use transform="matrix(0.04938271604938272,0,0,0.04938271604938272,49.33333333333334,0)" xlink:href="#bn"/><use transform="matrix(0.04938271604938272,0,0,0.04938271604938272,58.22222222222223,0)" xlink:href="#bi"/><use transform="matrix(0.04938271604938272,0,0,0.04938271604938272,63.1604938271605,0)" xlink:href="#bo"/><use transform="matrix(0.04938271604938272,0,0,0.04938271604938272,67.06172839506173,0)" xlink:href="#bp"/><use transform="matrix(0.04938271604938272,0,0,0.04938271604938272,76.93827160493828,0)" xlink:href="#bl"/><use transform="matrix(0.04938271604938272,0,0,0.04938271604938272,86.81481481481482,0)" xlink:href="#bm"/></g><path fill="#333" d="M85-194c31 0 48 13 60 33l-1-100h32l1 261h-30c-2-10 0-23-3-31C134-8 116 4 85 4 32 4 16-35 15-94c0-66 23-100 70-100zm9 24c-40 0-46 34-46 75 0 40 6 74 45 74 42 0 51-32 51-76 0-42-9-74-50-73" id="bq"/><path fill="#333" d="M33-154v-36h34v36H33zM33 0v-36h34V0H33" id="br"/><g id="B"><use transform="matrix(0.04938271604938272,0,0,0.04938271604938272,0,0)" xlink:href="#bo"/><use transform="matrix(0.04938271604938272,0,0,0.04938271604938272,3.901234567901235,0)" xlink:href="#bq"/><use transform="matrix(0.04938271604938272,0,0,0.04938271604938272,13.777777777777779,0)" xlink:href="#br"/></g><path fill="#333" d="M100-194c63 0 86 42 84 106H49c0 40 14 67 53 68 26 1 43-12 49-29l28 8c-11 28-37 45-77 45C44 4 14-33 15-96c1-61 26-98 85-98zm52 81c6-60-76-77-97-28-3 7-6 17-6 28h103" id="bs"/><path fill="#333" d="M177-190C167-65 218 103 67 71c-23-6-38-20-44-43l32-5c15 47 100 32 89-28v-30C133-14 115 1 83 1 29 1 15-40 15-95c0-56 16-97 71-98 29-1 48 16 59 35 1-10 0-23 2-32h30zM94-22c36 0 50-32 50-73 0-42-14-75-50-75-39 0-46 34-46 75s6 73 46 73" id="bt"/><g id="C"><use transform="matrix(0.04938271604938272,0,0,0.04938271604938272,0,0)" xlink:href="#bo"/><use transform="matrix(0.04938271604938272,0,0,0.04938271604938272,3.901234567901235,0)" xlink:href="#bl"/><use transform="matrix(0.04938271604938272,0,0,0.04938271604938272,13.777777777777779,0)" xlink:href="#bi"/><use transform="matrix(0.04938271604938272,0,0,0.04938271604938272,18.71604938271605,0)" xlink:href="#bs"/><use transform="matrix(0.04938271604938272,0,0,0.04938271604938272,28.592592592592595,0)" xlink:href="#bt"/><use transform="matrix(0.04938271604938272,0,0,0.04938271604938272,38.46913580246914,0)" xlink:href="#bs"/><use transform="matrix(0.04938271604938272,0,0,0.04938271604938272,48.345679012345684,0)" xlink:href="#bj"/></g><path fill="#333" d="M84 4C-5 8 30-112 23-190h32v120c0 31 7 50 39 49 72-2 45-101 50-169h31l1 190h-30c-1-10 1-25-2-33-11 22-28 36-60 37" id="bu"/><path fill="#333" d="M-5 72V49h209v23H-5" id="bv"/><g id="D"><use transform="matrix(0.04938271604938272,0,0,0.04938271604938272,0,0)" xlink:href="#bu"/><use transform="matrix(0.04938271604938272,0,0,0.04938271604938272,9.876543209876544,0)" xlink:href="#bm"/><use transform="matrix(0.04938271604938272,0,0,0.04938271604938272,18.765432098765434,0)" xlink:href="#bs"/><use transform="matrix(0.04938271604938272,0,0,0.04938271604938272,28.641975308641978,0)" xlink:href="#bj"/><use transform="matrix(0.04938271604938272,0,0,0.04938271604938272,34.51851851851852,0)" xlink:href="#bv"/><use transform="matrix(0.04938271604938272,0,0,0.04938271604938272,44.39506172839506,0)" xlink:href="#bo"/><use transform="matrix(0.04938271604938272,0,0,0.04938271604938272,48.2962962962963,0)" xlink:href="#bq"/><use transform="matrix(0.04938271604938272,0,0,0.04938271604938272,58.17283950617284,0)" xlink:href="#br"/></g><g id="E"><use transform="matrix(0.04938271604938272,0,0,0.04938271604938272,0,0)" xlink:href="#bo"/><use transform="matrix(0.04938271604938272,0,0,0.04938271604938272,3.901234567901235,0)" xlink:href="#bl"/><use transform="matrix(0.04938271604938272,0,0,0.04938271604938272,13.777777777777779,0)" xlink:href="#bi"/><use transform="matrix(0.04938271604938272,0,0,0.04938271604938272,18.71604938271605,0)" xlink:href="#bs"/><use transform="matrix(0.04938271604938272,0,0,0.04938271604938272,28.592592592592595,0)" xlink:href="#bt"/><use transform="matrix(0.04938271604938272,0,0,0.04938271604938272,38.46913580246914,0)" xlink:href="#bs"/><use transform="matrix(0.04938271604938272,0,0,0.04938271604938272,48.345679012345684,0)" xlink:href="#bj"/></g><path fill="#333" d="M101-234c-31-9-42 10-38 44h38v23H63V0H32v-167H5v-23h27c-7-52 17-82 69-68v24" id="bw"/><path fill="#333" d="M143 0L79-87 56-68V0H24v-261h32v163l83-92h37l-77 82L181 0h-38" id="bx"/><path fill="#333" d="M179-190L93 31C79 59 56 82 12 73V49c39 6 53-20 64-50L1-190h34L92-34l54-156h33" id="by"/><g id="F"><use transform="matrix(0.04938271604938272,0,0,0.04938271604938272,0,0)" xlink:href="#bw"/><use transform="matrix(0.04938271604938272,0,0,0.04938271604938272,4.938271604938272,0)" xlink:href="#bp"/><use transform="matrix(0.04938271604938272,0,0,0.04938271604938272,14.814814814814817,0)" xlink:href="#bj"/><use transform="matrix(0.04938271604938272,0,0,0.04938271604938272,20.69135802469136,0)" xlink:href="#bs"/><use transform="matrix(0.04938271604938272,0,0,0.04938271604938272,30.567901234567906,0)" xlink:href="#bo"/><use transform="matrix(0.04938271604938272,0,0,0.04938271604938272,34.46913580246914,0)" xlink:href="#bt"/><use transform="matrix(0.04938271604938272,0,0,0.04938271604938272,44.345679012345684,0)" xlink:href="#bl"/><use transform="matrix(0.04938271604938272,0,0,0.04938271604938272,54.22222222222223,0)" xlink:href="#bv"/><use transform="matrix(0.04938271604938272,0,0,0.04938271604938272,64.09876543209877,0)" xlink:href="#bx"/><use transform="matrix(0.04938271604938272,0,0,0.04938271604938272,72.98765432098766,0)" xlink:href="#bs"/><use transform="matrix(0.04938271604938272,0,0,0.04938271604938272,82.8641975308642,0)" xlink:href="#by"/></g><g id="G"><use transform="matrix(0.04938271604938272,0,0,0.04938271604938272,0,0)" xlink:href="#bn"/><use transform="matrix(0.04938271604938272,0,0,0.04938271604938272,8.88888888888889,0)" xlink:href="#bk"/><use transform="matrix(0.04938271604938272,0,0,0.04938271604938272,18.765432098765434,0)" xlink:href="#bi"/><use transform="matrix(0.04938271604938272,0,0,0.04938271604938272,23.703703703703706,0)" xlink:href="#bs"/><use transform="matrix(0.04938271604938272,0,0,0.04938271604938272,33.580246913580254,0)" xlink:href="#bt"/><use transform="matrix(0.04938271604938272,0,0,0.04938271604938272,43.4567901234568,0)" xlink:href="#bp"/><use transform="matrix(0.04938271604938272,0,0,0.04938271604938272,53.333333333333336,0)" xlink:href="#bj"/><use transform="matrix(0.04938271604938272,0,0,0.04938271604938272,59.209876543209894,0)" xlink:href="#by"/><use transform="matrix(0.04938271604938272,0,0,0.04938271604938272,68.09876543209877,0)" xlink:href="#bv"/><use transform="matrix(0.04938271604938272,0,0,0.04938271604938272,77.97530864197532,0)" xlink:href="#bo"/><use transform="matrix(0.04938271604938272,0,0,0.04938271604938272,81.87654320987656,0)" xlink:href="#bq"/><use transform="matrix(0.04938271604938272,0,0,0.04938271604938272,91.7530864197531,0)" xlink:href="#br"/></g><g id="H"><use transform="matrix(0.04938271604938272,0,0,0.04938271604938272,0,0)" xlink:href="#bw"/><use transform="matrix(0.04938271604938272,0,0,0.04938271604938272,4.938271604938272,0)" xlink:href="#bp"/><use transform="matrix(0.04938271604938272,0,0,0.04938271604938272,14.814814814814817,0)" xlink:href="#bj"/><use transform="matrix(0.04938271604938272,0,0,0.04938271604938272,20.69135802469136,0)" xlink:href="#bs"/><use transform="matrix(0.04938271604938272,0,0,0.04938271604938272,30.567901234567906,0)" xlink:href="#bo"/><use transform="matrix(0.04938271604938272,0,0,0.04938271604938272,34.46913580246914,0)" xlink:href="#bt"/><use transform="matrix(0.04938271604938272,0,0,0.04938271604938272,44.345679012345684,0)" xlink:href="#bl"/></g><g id="I"><use transform="matrix(0.04938271604938272,0,0,0.04938271604938272,0,0)" xlink:href="#bx"/><use transform="matrix(0.04938271604938272,0,0,0.04938271604938272,8.88888888888889,0)" xlink:href="#bs"/><use transform="matrix(0.04938271604938272,0,0,0.04938271604938272,18.765432098765434,0)" xlink:href="#by"/></g><g id="J"><use transform="matrix(0.04938271604938272,0,0,0.04938271604938272,0,0)" xlink:href="#bi"/><use transform="matrix(0.04938271604938272,0,0,0.04938271604938272,4.938271604938272,0)" xlink:href="#bj"/><use transform="matrix(0.04938271604938272,0,0,0.04938271604938272,10.814814814814817,0)" xlink:href="#bk"/><use transform="matrix(0.04938271604938272,0,0,0.04938271604938272,20.69135802469136,0)" xlink:href="#bl"/><use transform="matrix(0.04938271604938272,0,0,0.04938271604938272,30.567901234567906,0)" xlink:href="#bm"/><use transform="matrix(0.04938271604938272,0,0,0.04938271604938272,39.4567901234568,0)" xlink:href="#bk"/><use transform="matrix(0.04938271604938272,0,0,0.04938271604938272,49.33333333333334,0)" xlink:href="#bn"/><use transform="matrix(0.04938271604938272,0,0,0.04938271604938272,58.22222222222223,0)" xlink:href="#bi"/><use transform="matrix(0.04938271604938272,0,0,0.04938271604938272,63.1604938271605,0)" xlink:href="#bo"/><use transform="matrix(0.04938271604938272,0,0,0.04938271604938272,67.06172839506173,0)" xlink:href="#bp"/><use transform="matrix(0.04938271604938272,0,0,0.04938271604938272,76.93827160493828,0)" xlink:href="#bl"/><use transform="matrix(0.04938271604938272,0,0,0.04938271604938272,86.81481481481482,0)" xlink:href="#bv"/><use transform="matrix(0.04938271604938272,0,0,0.04938271604938272,96.69135802469137,0)" xlink:href="#bq"/><use transform="matrix(0.04938271604938272,0,0,0.04938271604938272,106.56790123456791,0)" xlink:href="#bk"/><use transform="matrix(0.04938271604938272,0,0,0.04938271604938272,116.44444444444446,0)" xlink:href="#bi"/><use transform="matrix(0.04938271604938272,0,0,0.04938271604938272,121.38271604938272,0)" xlink:href="#bs"/><use transform="matrix(0.04938271604938272,0,0,0.04938271604938272,131.2592592592593,0)" xlink:href="#br"/></g><path fill="#333" d="M210-169c-67 3-38 105-44 169h-31v-121c0-29-5-50-35-48C34-165 62-65 56 0H25l-1-190h30c1 10-1 24 2 32 10-44 99-50 107 0 11-21 27-35 58-36 85-2 47 119 55 194h-31v-121c0-29-5-49-35-48" id="bz"/><g id="K"><use transform="matrix(0.04938271604938272,0,0,0.04938271604938272,0,0)" xlink:href="#bq"/><use transform="matrix(0.04938271604938272,0,0,0.04938271604938272,9.876543209876544,0)" xlink:href="#bk"/><use transform="matrix(0.04938271604938272,0,0,0.04938271604938272,19.75308641975309,0)" xlink:href="#bi"/><use transform="matrix(0.04938271604938272,0,0,0.04938271604938272,24.69135802469136,0)" xlink:href="#bs"/><use transform="matrix(0.04938271604938272,0,0,0.04938271604938272,34.567901234567906,0)" xlink:href="#bi"/><use transform="matrix(0.04938271604938272,0,0,0.04938271604938272,39.50617283950618,0)" xlink:href="#bo"/><use transform="matrix(0.04938271604938272,0,0,0.04938271604938272,43.40740740740741,0)" xlink:href="#bz"/><use transform="matrix(0.04938271604938272,0,0,0.04938271604938272,58.17283950617284,0)" xlink:href="#bs"/></g><path fill="#333" d="M115-194c55 1 70 41 70 98S169 2 115 4C84 4 66-9 55-30l1 105H24l-1-265h31l2 30c10-21 28-34 59-34zm-8 174c40 0 45-34 45-75s-6-73-45-74c-42 0-51 32-51 76 0 43 10 73 51 73" id="bA"/><path fill="#333" d="M24 0v-261h32V0H24" id="bB"/><g id="L"><use transform="matrix(0.04938271604938272,0,0,0.04938271604938272,0,0)" xlink:href="#bA"/><use transform="matrix(0.04938271604938272,0,0,0.04938271604938272,9.876543209876544,0)" xlink:href="#bB"/><use transform="matrix(0.04938271604938272,0,0,0.04938271604938272,13.777777777777779,0)" xlink:href="#bk"/><use transform="matrix(0.04938271604938272,0,0,0.04938271604938272,23.654320987654323,0)" xlink:href="#bn"/><use transform="matrix(0.04938271604938272,0,0,0.04938271604938272,32.543209876543216,0)" xlink:href="#bs"/><use transform="matrix(0.04938271604938272,0,0,0.04938271604938272,42.41975308641976,0)" xlink:href="#br"/></g><path fill="#333" d="M141 0L90-78 38 0H4l68-98-65-92h35l48 74 47-74h35l-64 92 68 98h-35" id="bC"/><g id="M"><use transform="matrix(0.04938271604938272,0,0,0.04938271604938272,0,0)" xlink:href="#bi"/><use transform="matrix(0.04938271604938272,0,0,0.04938271604938272,4.938271604938272,0)" xlink:href="#bs"/><use transform="matrix(0.04938271604938272,0,0,0.04938271604938272,14.814814814814817,0)" xlink:href="#bC"/><use transform="matrix(0.04938271604938272,0,0,0.04938271604938272,23.703703703703706,0)" xlink:href="#bi"/></g><g id="N"><use transform="matrix(0.04938271604938272,0,0,0.04938271604938272,0,0)" xlink:href="#bk"/><use transform="matrix(0.04938271604938272,0,0,0.04938271604938272,9.876543209876544,0)" xlink:href="#bz"/><use transform="matrix(0.04938271604938272,0,0,0.04938271604938272,24.641975308641978,0)" xlink:href="#bp"/><use transform="matrix(0.04938271604938272,0,0,0.04938271604938272,34.51851851851852,0)" xlink:href="#bu"/><use transform="matrix(0.04938271604938272,0,0,0.04938271604938272,44.39506172839506,0)" xlink:href="#bl"/><use transform="matrix(0.04938271604938272,0,0,0.04938271604938272,54.27160493827161,0)" xlink:href="#bi"/><use transform="matrix(0.04938271604938272,0,0,0.04938271604938272,59.20987654320988,0)" xlink:href="#br"/></g><path fill="#333" d="M87 75C49 33 22-17 22-94c0-76 28-126 65-167h31c-38 41-64 92-64 168S80 34 118 75H87" id="bD"/><path fill="#333" d="M27 0v-27h64v-190l-56 39v-29l58-41h29v221h61V0H27" id="bE"/><path fill="#333" d="M101-251c68 0 85 55 85 127S166 4 100 4C33 4 14-52 14-124c0-73 17-127 87-127zm-1 229c47 0 54-49 54-102s-4-102-53-102c-51 0-55 48-55 102 0 53 5 102 54 102" id="bF"/><path fill="#333" d="M68-38c1 34 0 65-14 84H32c9-13 17-26 17-46H33v-38h35" id="bG"/><path fill="#333" d="M101-251c82-7 93 87 43 132L82-64C71-53 59-42 53-27h129V0H18c2-99 128-94 128-182 0-28-16-43-45-43s-46 15-49 41l-32-3c6-41 34-60 81-64" id="bH"/><path fill="#333" d="M33-261c38 41 65 92 65 168S71 34 33 75H2C39 34 66-17 66-93S39-220 2-261h31" id="bI"/><g id="O"><use transform="matrix(0.04938271604938272,0,0,0.04938271604938272,0,0)" xlink:href="#bq"/><use transform="matrix(0.04938271604938272,0,0,0.04938271604938272,9.876543209876544,0)" xlink:href="#bs"/><use transform="matrix(0.04938271604938272,0,0,0.04938271604938272,19.75308641975309,0)" xlink:href="#bn"/><use transform="matrix(0.04938271604938272,0,0,0.04938271604938272,28.641975308641978,0)" xlink:href="#bo"/><use transform="matrix(0.04938271604938272,0,0,0.04938271604938272,32.543209876543216,0)" xlink:href="#bz"/><use transform="matrix(0.04938271604938272,0,0,0.04938271604938272,47.308641975308646,0)" xlink:href="#bk"/><use transform="matrix(0.04938271604938272,0,0,0.04938271604938272,57.18518518518519,0)" xlink:href="#bB"/><use transform="matrix(0.04938271604938272,0,0,0.04938271604938272,61.086419753086425,0)" xlink:href="#bD"/><use transform="matrix(0.04938271604938272,0,0,0.04938271604938272,66.96296296296296,0)" xlink:href="#bE"/><use transform="matrix(0.04938271604938272,0,0,0.04938271604938272,76.8395061728395,0)" xlink:href="#bF"/><use transform="matrix(0.04938271604938272,0,0,0.04938271604938272,86.71604938271605,0)" xlink:href="#bG"/><use transform="matrix(0.04938271604938272,0,0,0.04938271604938272,91.65432098765433,0)" xlink:href="#bH"/><use transform="matrix(0.04938271604938272,0,0,0.04938271604938272,101.53086419753087,0)" xlink:href="#bI"/></g><path fill="#333" d="M115-194c53 0 69 39 70 98 0 66-23 100-70 100C84 3 66-7 56-30L54 0H23l1-261h32v101c10-23 28-34 59-34zm-8 174c40 0 45-34 45-75 0-40-5-75-45-74-42 0-51 32-51 76 0 43 10 73 51 73" id="bJ"/><g id="P"><use transform="matrix(0.04938271604938272,0,0,0.04938271604938272,0,0)" xlink:href="#bJ"/><use transform="matrix(0.04938271604938272,0,0,0.04938271604938272,9.876543209876544,0)" xlink:href="#bu"/><use transform="matrix(0.04938271604938272,0,0,0.04938271604938272,19.75308641975309,0)" xlink:href="#bq"/><use transform="matrix(0.04938271604938272,0,0,0.04938271604938272,29.629629629629633,0)" xlink:href="#bt"/><use transform="matrix(0.04938271604938272,0,0,0.04938271604938272,39.50617283950618,0)" xlink:href="#bs"/><use transform="matrix(0.04938271604938272,0,0,0.04938271604938272,49.38271604938272,0)" xlink:href="#bi"/><use transform="matrix(0.04938271604938272,0,0,0.04938271604938272,54.320987654320994,0)" xlink:href="#bv"/><use transform="matrix(0.04938271604938272,0,0,0.04938271604938272,64.19753086419755,0)" xlink:href="#bn"/><use transform="matrix(0.04938271604938272,0,0,0.04938271604938272,73.08641975308643,0)" xlink:href="#bk"/><use transform="matrix(0.04938271604938272,0,0,0.04938271604938272,82.96296296296298,0)" xlink:href="#bi"/><use transform="matrix(0.04938271604938272,0,0,0.04938271604938272,87.90123456790124,0)" xlink:href="#bs"/><use transform="matrix(0.04938271604938272,0,0,0.04938271604938272,97.77777777777779,0)" xlink:href="#bt"/><use transform="matrix(0.04938271604938272,0,0,0.04938271604938272,107.65432098765433,0)" xlink:href="#bp"/><use transform="matrix(0.04938271604938272,0,0,0.04938271604938272,117.53086419753087,0)" xlink:href="#bj"/><use transform="matrix(0.04938271604938272,0,0,0.04938271604938272,123.40740740740742,0)" xlink:href="#bo"/><use transform="matrix(0.04938271604938272,0,0,0.04938271604938272,127.30864197530865,0)" xlink:href="#bs"/><use transform="matrix(0.04938271604938272,0,0,0.04938271604938272,137.18518518518522,0)" xlink:href="#bm"/></g><g id="Q"><use transform="matrix(0.04938271604938272,0,0,0.04938271604938272,0,0)" xlink:href="#bl"/><use transform="matrix(0.04938271604938272,0,0,0.04938271604938272,9.876543209876544,0)" xlink:href="#bk"/><use transform="matrix(0.04938271604938272,0,0,0.04938271604938272,19.75308641975309,0)" xlink:href="#bz"/><use transform="matrix(0.04938271604938272,0,0,0.04938271604938272,34.51851851851852,0)" xlink:href="#bs"/><use transform="matrix(0.04938271604938272,0,0,0.04938271604938272,44.39506172839506,0)" xlink:href="#br"/></g><g id="R"><use transform="matrix(0.04938271604938272,0,0,0.04938271604938272,0,0)" xlink:href="#bJ"/><use transform="matrix(0.04938271604938272,0,0,0.04938271604938272,9.876543209876544,0)" xlink:href="#bu"/><use transform="matrix(0.04938271604938272,0,0,0.04938271604938272,19.75308641975309,0)" xlink:href="#bq"/><use transform="matrix(0.04938271604938272,0,0,0.04938271604938272,29.629629629629633,0)" xlink:href="#bt"/><use transform="matrix(0.04938271604938272,0,0,0.04938271604938272,39.50617283950618,0)" xlink:href="#bs"/><use transform="matrix(0.04938271604938272,0,0,0.04938271604938272,49.38271604938272,0)" xlink:href="#bi"/><use transform="matrix(0.04938271604938272,0,0,0.04938271604938272,54.320987654320994,0)" xlink:href="#bv"/><use transform="matrix(0.04938271604938272,0,0,0.04938271604938272,64.19753086419755,0)" xlink:href="#bk"/><use transform="matrix(0.04938271604938272,0,0,0.04938271604938272,74.07407407407409,0)" xlink:href="#bz"/><use transform="matrix(0.04938271604938272,0,0,0.04938271604938272,88.83950617283952,0)" xlink:href="#bp"/><use transform="matrix(0.04938271604938272,0,0,0.04938271604938272,98.71604938271606,0)" xlink:href="#bu"/><use transform="matrix(0.04938271604938272,0,0,0.04938271604938272,108.5925925925926,0)" xlink:href="#bl"/><use transform="matrix(0.04938271604938272,0,0,0.04938271604938272,118.46913580246914,0)" xlink:href="#bi"/><use transform="matrix(0.04938271604938272,0,0,0.04938271604938272,123.40740740740742,0)" xlink:href="#br"/></g><g id="S"><use transform="matrix(0.04938271604938272,0,0,0.04938271604938272,0,0)" xlink:href="#bq"/><use transform="matrix(0.04938271604938272,0,0,0.04938271604938272,9.876543209876544,0)" xlink:href="#bs"/><use transform="matrix(0.04938271604938272,0,0,0.04938271604938272,19.75308641975309,0)" xlink:href="#bn"/><use transform="matrix(0.04938271604938272,0,0,0.04938271604938272,28.641975308641978,0)" xlink:href="#bo"/><use transform="matrix(0.04938271604938272,0,0,0.04938271604938272,32.543209876543216,0)" xlink:href="#bz"/><use transform="matrix(0.04938271604938272,0,0,0.04938271604938272,47.308641975308646,0)" xlink:href="#bk"/><use transform="matrix(0.04938271604938272,0,0,0.04938271604938272,57.18518518518519,0)" xlink:href="#bB"/><use transform="matrix(0.04938271604938272,0,0,0.04938271604938272,61.086419753086425,0)" xlink:href="#bD"/><use transform="matrix(0.04938271604938272,0,0,0.04938271604938272,66.96296296296296,0)" xlink:href="#bE"/><use transform="matrix(0.04938271604938272,0,0,0.04938271604938272,76.8395061728395,0)" xlink:href="#bF"/><use transform="matrix(0.04938271604938272,0,0,0.04938271604938272,86.71604938271605,0)" xlink:href="#bG"/></g><g id="T"><use transform="matrix(0.04938271604938272,0,0,0.04938271604938272,0,0)" xlink:href="#bH"/><use transform="matrix(0.04938271604938272,0,0,0.04938271604938272,9.876543209876544,0)" xlink:href="#bI"/></g><g id="U"><use transform="matrix(0.04938271604938272,0,0,0.04938271604938272,0,0)" xlink:href="#bn"/><use transform="matrix(0.04938271604938272,0,0,0.04938271604938272,8.88888888888889,0)" xlink:href="#bk"/><use transform="matrix(0.04938271604938272,0,0,0.04938271604938272,18.765432098765434,0)" xlink:href="#bi"/><use transform="matrix(0.04938271604938272,0,0,0.04938271604938272,23.703703703703706,0)" xlink:href="#bs"/><use transform="matrix(0.04938271604938272,0,0,0.04938271604938272,33.580246913580254,0)" xlink:href="#bt"/><use transform="matrix(0.04938271604938272,0,0,0.04938271604938272,43.4567901234568,0)" xlink:href="#bp"/><use transform="matrix(0.04938271604938272,0,0,0.04938271604938272,53.333333333333336,0)" xlink:href="#bj"/><use transform="matrix(0.04938271604938272,0,0,0.04938271604938272,59.209876543209894,0)" xlink:href="#by"/><use transform="matrix(0.04938271604938272,0,0,0.04938271604938272,68.09876543209877,0)" xlink:href="#bv"/><use transform="matrix(0.04938271604938272,0,0,0.04938271604938272,77.97530864197532,0)" xlink:href="#bi"/><use transform="matrix(0.04938271604938272,0,0,0.04938271604938272,82.9135802469136,0)" xlink:href="#by"/><use transform="matrix(0.04938271604938272,0,0,0.04938271604938272,91.80246913580248,0)" xlink:href="#bA"/><use transform="matrix(0.04938271604938272,0,0,0.04938271604938272,101.67901234567903,0)" xlink:href="#bs"/><use transform="matrix(0.04938271604938272,0,0,0.04938271604938272,111.55555555555557,0)" xlink:href="#bv"/><use transform="matrix(0.04938271604938272,0,0,0.04938271604938272,121.43209876543212,0)" xlink:href="#bo"/><use transform="matrix(0.04938271604938272,0,0,0.04938271604938272,125.33333333333337,0)" xlink:href="#bq"/><use transform="matrix(0.04938271604938272,0,0,0.04938271604938272,135.2098765432099,0)" xlink:href="#br"/></g><g id="V"><use transform="matrix(0.04938271604938272,0,0,0.04938271604938272,0,0)" xlink:href="#bu"/><use transform="matrix(0.04938271604938272,0,0,0.04938271604938272,9.876543209876544,0)" xlink:href="#bm"/><use transform="matrix(0.04938271604938272,0,0,0.04938271604938272,18.765432098765434,0)" xlink:href="#bs"/><use transform="matrix(0.04938271604938272,0,0,0.04938271604938272,28.641975308641978,0)" xlink:href="#bj"/><use transform="matrix(0.04938271604938272,0,0,0.04938271604938272,34.51851851851852,0)" xlink:href="#bm"/></g><g id="W"><use transform="matrix(0.04938271604938272,0,0,0.04938271604938272,0,0)" xlink:href="#bu"/><use transform="matrix(0.04938271604938272,0,0,0.04938271604938272,9.876543209876544,0)" xlink:href="#bm"/><use transform="matrix(0.04938271604938272,0,0,0.04938271604938272,18.765432098765434,0)" xlink:href="#bs"/><use transform="matrix(0.04938271604938272,0,0,0.04938271604938272,28.641975308641978,0)" xlink:href="#bj"/><use transform="matrix(0.04938271604938272,0,0,0.04938271604938272,34.51851851851852,0)" xlink:href="#bl"/><use transform="matrix(0.04938271604938272,0,0,0.04938271604938272,44.39506172839506,0)" xlink:href="#bk"/><use transform="matrix(0.04938271604938272,0,0,0.04938271604938272,54.27160493827161,0)" xlink:href="#bz"/><use transform="matrix(0.04938271604938272,0,0,0.04938271604938272,69.03703703703704,0)" xlink:href="#bs"/><use transform="matrix(0.04938271604938272,0,0,0.04938271604938272,78.91358024691358,0)" xlink:href="#br"/></g><path fill="#333" d="M206 0h-36l-40-164L89 0H53L-1-190h32L70-26l43-164h34l41 164 42-164h31" id="bK"/><path fill="#333" d="M106-169C34-169 62-67 57 0H25v-261h32l-1 103c12-21 28-36 61-36 89 0 53 116 60 194h-32v-121c2-32-8-49-39-48" id="bL"/><g id="X"><use transform="matrix(0.04938271604938272,0,0,0.04938271604938272,0,0)" xlink:href="#bA"/><use transform="matrix(0.04938271604938272,0,0,0.04938271604938272,9.876543209876544,0)" xlink:href="#bk"/><use transform="matrix(0.04938271604938272,0,0,0.04938271604938272,19.75308641975309,0)" xlink:href="#bm"/><use transform="matrix(0.04938271604938272,0,0,0.04938271604938272,28.641975308641978,0)" xlink:href="#bm"/><use transform="matrix(0.04938271604938272,0,0,0.04938271604938272,37.53086419753087,0)" xlink:href="#bK"/><use transform="matrix(0.04938271604938272,0,0,0.04938271604938272,50.320987654320994,0)" xlink:href="#bp"/><use transform="matrix(0.04938271604938272,0,0,0.04938271604938272,60.19753086419754,0)" xlink:href="#bj"/><use transform="matrix(0.04938271604938272,0,0,0.04938271604938272,66.07407407407408,0)" xlink:href="#bq"/><use transform="matrix(0.04938271604938272,0,0,0.04938271604938272,75.95061728395062,0)" xlink:href="#bv"/><use transform="matrix(0.04938271604938272,0,0,0.04938271604938272,85.82716049382717,0)" xlink:href="#bL"/><use transform="matrix(0.04938271604938272,0,0,0.04938271604938272,95.70370370370371,0)" xlink:href="#bk"/><use transform="matrix(0.04938271604938272,0,0,0.04938271604938272,105.58024691358025,0)" xlink:href="#bm"/><use transform="matrix(0.04938271604938272,0,0,0.04938271604938272,114.46913580246914,0)" xlink:href="#bL"/><use transform="matrix(0.04938271604938272,0,0,0.04938271604938272,124.34567901234568,0)" xlink:href="#br"/></g><path fill="#333" d="M134-131c28 9 52 24 51 62-1 50-34 73-85 73S17-19 16-69c0-36 21-54 49-61-75-25-45-126 34-121 46 3 78 18 79 63 0 33-17 51-44 57zm-34-11c31 1 46-15 46-44 0-28-17-43-47-42-29 0-46 13-45 42 1 28 16 44 46 44zm1 122c35 0 51-18 51-52 0-30-18-46-53-46-33 0-51 17-51 47 0 34 19 51 53 51" id="bM"/><g id="Y"><use transform="matrix(0.04938271604938272,0,0,0.04938271604938272,0,0)" xlink:href="#bo"/><use transform="matrix(0.04938271604938272,0,0,0.04938271604938272,3.901234567901235,0)" xlink:href="#bl"/><use transform="matrix(0.04938271604938272,0,0,0.04938271604938272,13.777777777777779,0)" xlink:href="#bi"/><use transform="matrix(0.04938271604938272,0,0,0.04938271604938272,18.71604938271605,0)" xlink:href="#bM"/></g><g id="Z"><use transform="matrix(0.04938271604938272,0,0,0.04938271604938272,0,0)" xlink:href="#bA"/><use transform="matrix(0.04938271604938272,0,0,0.04938271604938272,9.876543209876544,0)" xlink:href="#bk"/><use transform="matrix(0.04938271604938272,0,0,0.04938271604938272,19.75308641975309,0)" xlink:href="#bm"/><use transform="matrix(0.04938271604938272,0,0,0.04938271604938272,28.641975308641978,0)" xlink:href="#bm"/><use transform="matrix(0.04938271604938272,0,0,0.04938271604938272,37.53086419753087,0)" xlink:href="#bK"/><use transform="matrix(0.04938271604938272,0,0,0.04938271604938272,50.320987654320994,0)" xlink:href="#bp"/><use transform="matrix(0.04938271604938272,0,0,0.04938271604938272,60.19753086419754,0)" xlink:href="#bj"/><use transform="matrix(0.04938271604938272,0,0,0.04938271604938272,66.07407407407408,0)" xlink:href="#bq"/><use transform="matrix(0.04938271604938272,0,0,0.04938271604938272,75.95061728395062,0)" xlink:href="#bv"/><use transform="matrix(0.04938271604938272,0,0,0.04938271604938272,85.82716049382717,0)" xlink:href="#bm"/><use transform="matrix(0.04938271604938272,0,0,0.04938271604938272,94.71604938271605,0)" xlink:href="#bk"/><use transform="matrix(0.04938271604938272,0,0,0.04938271604938272,104.5925925925926,0)" xlink:href="#bB"/><use transform="matrix(0.04938271604938272,0,0,0.04938271604938272,108.49382716049384,0)" xlink:href="#bi"/><use transform="matrix(0.04938271604938272,0,0,0.04938271604938272,113.4320987654321,0)" xlink:href="#br"/></g><g id="aa"><use transform="matrix(0.04938271604938272,0,0,0.04938271604938272,0,0)" xlink:href="#bo"/><use transform="matrix(0.04938271604938272,0,0,0.04938271604938272,3.901234567901235,0)" xlink:href="#bl"/><use transform="matrix(0.04938271604938272,0,0,0.04938271604938272,13.777777777777779,0)" xlink:href="#bn"/><use transform="matrix(0.04938271604938272,0,0,0.04938271604938272,22.666666666666668,0)" xlink:href="#bp"/><use transform="matrix(0.04938271604938272,0,0,0.04938271604938272,32.543209876543216,0)" xlink:href="#bz"/><use transform="matrix(0.04938271604938272,0,0,0.04938271604938272,47.308641975308646,0)" xlink:href="#bs"/><use transform="matrix(0.04938271604938272,0,0,0.04938271604938272,57.18518518518519,0)" xlink:href="#br"/></g><g id="ab"><use transform="matrix(0.04938271604938272,0,0,0.04938271604938272,0,0)" xlink:href="#bA"/><use transform="matrix(0.04938271604938272,0,0,0.04938271604938272,9.876543209876544,0)" xlink:href="#bk"/><use transform="matrix(0.04938271604938272,0,0,0.04938271604938272,19.75308641975309,0)" xlink:href="#by"/><use transform="matrix(0.04938271604938272,0,0,0.04938271604938272,28.641975308641978,0)" xlink:href="#bv"/><use transform="matrix(0.04938271604938272,0,0,0.04938271604938272,38.51851851851852,0)" xlink:href="#bq"/><use transform="matrix(0.04938271604938272,0,0,0.04938271604938272,48.39506172839506,0)" xlink:href="#bk"/><use transform="matrix(0.04938271604938272,0,0,0.04938271604938272,58.27160493827161,0)" xlink:href="#bi"/><use transform="matrix(0.04938271604938272,0,0,0.04938271604938272,63.20987654320988,0)" xlink:href="#bs"/><use transform="matrix(0.04938271604938272,0,0,0.04938271604938272,73.08641975308643,0)" xlink:href="#br"/></g><g id="ac"><use transform="matrix(0.04938271604938272,0,0,0.04938271604938272,0,0)" xlink:href="#bq"/><use transform="matrix(0.04938271604938272,0,0,0.04938271604938272,9.876543209876544,0)" xlink:href="#bk"/><use transform="matrix(0.04938271604938272,0,0,0.04938271604938272,19.75308641975309,0)" xlink:href="#bi"/><use transform="matrix(0.04938271604938272,0,0,0.04938271604938272,24.69135802469136,0)" xlink:href="#bs"/></g><path fill="#333" d="M212-179c-10-28-35-45-73-45-59 0-87 40-87 99 0 60 29 101 89 101 43 0 62-24 78-52l27 14C228-24 195 4 139 4 59 4 22-46 18-125c-6-104 99-153 187-111 19 9 31 26 39 46" id="bN"/><g id="ad"><use transform="matrix(0.04938271604938272,0,0,0.04938271604938272,0,0)" xlink:href="#bN"/><use transform="matrix(0.04938271604938272,0,0,0.04938271604938272,12.790123456790125,0)" xlink:href="#bk"/><use transform="matrix(0.04938271604938272,0,0,0.04938271604938272,22.66666666666667,0)" xlink:href="#bi"/><use transform="matrix(0.04938271604938272,0,0,0.04938271604938272,27.604938271604947,0)" xlink:href="#bs"/><use transform="matrix(0.04938271604938272,0,0,0.04938271604938272,37.48148148148149,0)" xlink:href="#bt"/><use transform="matrix(0.04938271604938272,0,0,0.04938271604938272,47.35802469135803,0)" xlink:href="#bp"/><use transform="matrix(0.04938271604938272,0,0,0.04938271604938272,57.23456790123457,0)" xlink:href="#bj"/><use transform="matrix(0.04938271604938272,0,0,0.04938271604938272,63.111111111111114,0)" xlink:href="#by"/><use transform="matrix(0.04938271604938272,0,0,0.04938271604938272,72.00000000000001,0)" xlink:href="#bi"/><use transform="matrix(0.04938271604938272,0,0,0.04938271604938272,76.93827160493828,0)" xlink:href="#by"/><use transform="matrix(0.04938271604938272,0,0,0.04938271604938272,85.82716049382717,0)" xlink:href="#bA"/><use transform="matrix(0.04938271604938272,0,0,0.04938271604938272,95.70370370370371,0)" xlink:href="#bs"/><use transform="matrix(0.04938271604938272,0,0,0.04938271604938272,105.58024691358025,0)" xlink:href="#bm"/></g></defs></g></svg>